<svg width="180" height="180" viewBox="0 0 180 180" fill="none" xmlns="http://www.w3.org/2000/svg">
  <rect width="180" height="180" rx="38" fill="#080B14"/>
  <circle cx="90" cy="90" r="61" fill="#F97316"/>
  <circle cx="90" cy="90" r="61" fill="url(#paint0_radial)"/>
  <circle cx="90" cy="90" r="61" stroke="#451A03" stroke-width="6"/>
  <path d="M90 30C81 47 76 67 76 90C76 113 81 133 90 150" stroke="#451A03" stroke-width="7" stroke-linecap="round"/>
  <path d="M90 30C99 47 104 67 104 90C104 113 99 133 90 150" stroke="#451A03" stroke-width="7" stroke-linecap="round"/>
  <path d="M35 68C50 77 69 82 90 82C111 82 130 77 145 68" stroke="#451A03" stroke-width="7" stroke-linecap="round"/>
  <path d="M35 112C50 103 69 98 90 98C111 98 130 103 145 112" stroke="#451A03" stroke-width="7" stroke-linecap="round"/>
  <path d="M48 50C65 61 79 75 90 90C101 105 115 119 132 130" stroke="#451A03" stroke-width="7" stroke-linecap="round"/>
  <path d="M132 50C115 61 101 75 90 90C79 105 65 119 48 130" stroke="#451A03" stroke-width="7" stroke-linecap="round"/>
  <circle cx="68" cy="58" r="12" fill="#FDBA74" opacity="0.45"/>
  <defs>
    <radialGradient id="paint0_radial" cx="0" cy="0" r="1" gradientUnits="userSpaceOnUse" gradientTransform="translate(65 55) rotate(48) scale(106)">
      <stop stop-color="#FDBA74"/>
      <stop offset="0.45" stop-color="#F97316"/>
      <stop offset="1" stop-color="#9A3412"/>
    </radialGradient>
  </defs>
</svg>
